<?xml version="1.0" standalone="no"?>
<!DOCTYPE svg PUBLIC "-//W3C//DTD SVG 20010904//EN"
 "http://www.w3.org/TR/2001/REC-SVG-20010904/DTD/svg10.dtd">
<svg version="1.0" xmlns="http://www.w3.org/2000/svg"
 width="337.000000pt" height="337.000000pt" viewBox="0 0 337.000000 337.000000"
 preserveAspectRatio="xMidYMid meet">
<metadata>
Created by potrace 1.11, written by Peter Selinger 2001-2013
</metadata>
<g transform="translate(0.000000,337.000000) scale(0.100000,-0.100000)"
fill="#000000" stroke="none">
<path d="M1528 3365 c-1 -1 -28 -6 -59 -9 -102 -12 -235 -44 -354 -86 -163
-58 -371 -175 -500 -282 -195 -162 -372 -397 -472 -625 -32 -74 -88 -236 -97
-283 -2 -14 -9 -47 -15 -75 -6 -27 -14 -66 -17 -85 -9 -59 -12 -386 -4 -432 5
-24 11 -63 15 -88 18 -129 83 -327 152 -465 40 -80 145 -252 162 -265 3 -3 19
-22 34 -43 34 -45 163 -177 232 -235 84 -73 240 -171 358 -227 99 -47 261
-105 328 -119 13 -3 49 -10 79 -16 103 -20 165 -25 320 -24 217 1 336 19 525
81 77 24 255 101 265 113 3 4 13 9 23 13 18 7 188 115 197 126 3 3 28 24 55
46 72 57 192 179 251 255 85 109 130 181 192 311 86 177 134 338 161 539 9 69
7 341 -3 425 -18 142 -91 376 -162 517 -29 58 -103 187 -116 203 -5 5 -30 39
-57 75 -61 82 -186 211 -271 280 -221 181 -484 300 -785 357 -68 13 -426 28
-437 18z"/>
</g>
</svg>
